<svg xmlns="http://www.w3.org/2000/svg" width="465" height="465" viewBox="0 0 465 465" version="1.1"><path d="M 62.500 2.645 C 56.201 5.930, 51.723 9.542, 48.948 13.575 C 46.439 17.222, 46.193 18.191, 47.024 21.129 C 47.721 23.594, 53.112 37.038, 54.473 39.706 C 54.531 39.819, 58.398 36.219, 63.068 31.706 C 69.230 25.750, 73.538 22.556, 78.779 20.057 C 82.750 18.163, 86 16.308, 86 15.935 C 86 14.585, 68.852 1.001, 67.197 1.040 C 66.264 1.062, 64.150 1.784, 62.500 2.645 M 405.053 16.729 C 400.067 30.518, 379.881 53.275, 366.463 60.235 C 359.006 64.103, 342.442 69.391, 340.855 68.411 C 340.337 68.090, 339.333 68.309, 338.624 68.897 C 337.916 69.485, 333.456 71.530, 328.712 73.442 C 309.503 81.187, 301.094 90.110, 295.381 108.811 C 290.405 125.097, 290.573 131.160, 296.239 139.896 C 306.142 155.163, 319.784 164.633, 331.479 164.359 C 344.074 164.063, 379.156 148.082, 391.307 137.104 C 400.903 128.434, 409.739 112.154, 413.011 97.112 C 414.161 91.825, 415.557 85.780, 416.113 83.678 C 417.365 78.941, 416.383 56.895, 414.367 44.500 C 412.916 35.575, 408.359 16.661, 407.076 14.240 C 406.663 13.460, 405.892 14.409, 405.053 16.729 M 90.500 17.948 C 72.895 24.224, 50.653 44.977, 52.741 53.180 C 53.262 55.227, 66.478 72.336, 105.514 121.500 C 111.628 129.200, 130.279 152.825, 146.962 174 C 163.645 195.175, 178.473 213.736, 179.914 215.248 L 182.534 217.995 203.689 196.157 L 224.845 174.319 211.672 157.848 C 199.776 142.971, 185.224 125.563, 173 111.582 C 164.530 101.895, 139.062 69.510, 123.392 48.500 C 114.777 36.950, 105.899 25.250, 103.663 22.500 C 101.426 19.750, 99.575 17.443, 99.548 17.374 C 99.121 16.260, 94.394 16.560, 90.500 17.948 M 317.965 24.749 C 313.384 27.143, 312.064 28.491, 309.776 33.114 C 307.100 38.519, 307.068 38.799, 308.140 47.563 C 310.130 63.843, 309.210 71.320, 304.551 76.734 L 302.171 79.500 299.045 77.190 L 295.918 74.880 293.992 77.190 C 292.933 78.460, 292.052 79.789, 292.033 80.143 C 291.945 81.857, 288.543 81.729, 284.255 79.850 C 281.640 78.705, 276.173 76.918, 272.107 75.879 C 259.562 72.676, 253.110 67.860, 252.821 61.482 C 252.746 59.842, 253.427 55.836, 254.332 52.581 C 255.978 46.663, 255.978 46.660, 253.513 43.428 C 248.569 36.947, 236.041 38.177, 231.797 45.560 C 230.163 48.402, 230.148 49.054, 231.580 54.697 C 232.958 60.128, 232.961 61.157, 231.612 64.386 C 229.851 68.600, 227.706 68.968, 221.500 66.122 C 216.714 63.927, 202.682 53.536, 198.563 49.137 C 194.881 45.204, 193.340 45.175, 192.495 49.024 C 192.129 50.687, 190.773 53.305, 189.481 54.841 C 186.415 58.485, 169.147 71.585, 166.267 72.452 C 162.226 73.668, 159.514 69.449, 154.962 54.861 C 149.010 35.788, 146.099 31.323, 138.129 29.037 C 135.714 28.344, 133.695 28.660, 129.153 30.440 C 125.930 31.703, 122.532 33.163, 121.600 33.684 C 120.148 34.497, 122.023 37.430, 134.803 54.339 C 142.996 65.178, 154.372 79.696, 160.084 86.601 C 169.695 98.220, 170.679 99.114, 173.283 98.593 C 176.220 98.006, 200.739 86.215, 214.444 78.799 C 226.529 72.260, 228.326 72.512, 250 83.793 C 263.892 91.024, 289.693 103, 291.378 103 C 291.555 103, 293.216 100.015, 295.068 96.366 C 301.280 84.128, 312.779 74.263, 325.363 70.375 C 330.509 68.785, 331.488 68.056, 333.363 64.423 C 334.539 62.145, 336.943 57.570, 338.707 54.255 C 340.471 50.940, 342.436 46.152, 343.075 43.616 C 344.145 39.365, 344.024 38.568, 341.520 33.451 C 338.440 27.157, 333.784 23.542, 327.463 22.538 C 324.179 22.016, 322.409 22.428, 317.965 24.749 M 24.830 62.036 C 19.236 64.977, 16.813 68.980, 17.610 73.964 C 18.500 79.530, 23.247 86.377, 29.396 90.962 C 32.203 93.056, 41.925 99.157, 51 104.520 C 69.698 115.571, 76.699 121.732, 79.330 129.455 C 80.878 133.997, 80.867 134.511, 79.149 138.387 C 78.146 140.649, 76.689 143.002, 75.913 143.616 C 73.936 145.177, 47.013 147.151, 43.079 146.023 C 40.265 145.216, 39.584 145.483, 36.439 148.628 C 33.304 151.762, 33.004 152.522, 33.597 155.816 C 34.434 160.469, 39.411 166.661, 46.774 172.212 C 52.985 176.895, 55.964 181.793, 57.922 190.542 C 59.510 197.639, 58.249 200.560, 52.499 203.104 C 45.674 206.122, 33.507 208.141, 24 207.831 C 15.572 207.557, 15.497 207.576, 15.203 210.079 C 14.756 213.871, 18.012 216.293, 23.216 216.039 C 25.572 215.924, 36.222 215.852, 46.882 215.879 C 68.931 215.935, 68.808 215.895, 71.516 224.048 C 74.027 231.607, 71.073 239.699, 64.500 243.270 C 63.400 243.868, 56.947 246.261, 50.160 248.589 L 37.820 252.822 44.660 253.488 C 55.091 254.504, 57.737 255.700, 64.482 262.445 C 75.020 272.983, 79.032 284.431, 74.387 290.707 C 71.391 294.755, 68.498 295.855, 52.164 299.150 C 35.636 302.484, 30.244 304.647, 27.839 308.910 C 24.864 314.180, 28.162 322.423, 34.802 326.311 C 38.980 328.758, 42.238 327.769, 56.872 319.613 C 63.950 315.667, 71.577 312.287, 76.364 310.974 C 83.426 309.036, 84.879 308.939, 90.629 310.024 C 94.281 310.713, 97.397 311.887, 97.884 312.757 C 98.366 313.618, 99.258 313.959, 99.937 313.539 C 101.307 312.692, 120.164 290.205, 122.524 286.604 C 123.975 284.390, 123.185 278.843, 110.981 205.541 C 101.175 146.637, 98.110 126.182, 98.791 124.178 C 99.566 121.898, 99.165 120.802, 96.101 116.810 C 94.120 114.230, 91.374 111.634, 89.998 111.041 C 84.554 108.695, 74.546 99.892, 63.399 87.648 C 47.845 70.563, 38.500 62.897, 30.500 60.664 C 29.400 60.357, 26.849 60.974, 24.830 62.036 M 427 87.981 C 420.778 89.222, 419.181 90.139, 418.537 92.844 C 418.190 94.305, 417.671 96.287, 417.385 97.250 C 416.955 98.698, 417.523 99.006, 420.683 99.034 C 422.782 99.053, 426.300 99.937, 428.500 101 C 432.910 103.130, 439.070 103.568, 442.066 101.965 C 446.287 99.706, 443.273 91.744, 436.961 88.480 C 433.943 86.919, 432.653 86.855, 427 87.981 M 268.474 147.360 C 258.706 152.505, 247.845 160.237, 237.394 169.486 C 223.951 181.382, 194.947 210.884, 183.799 224 C 177.956 230.875, 166.048 244.653, 157.338 254.617 C 148.627 264.581, 136.925 278.306, 131.334 285.117 C 125.743 291.928, 116.968 302.591, 111.834 308.814 C 106.700 315.036, 101.600 321.348, 100.500 322.840 C 99.400 324.332, 90.826 335.216, 81.447 347.026 C 62.168 371.304, 43.442 395.306, 21.093 424.388 L 5.809 444.276 15.654 438.989 C 43.424 424.079, 89.927 393.970, 113.246 375.803 C 120.536 370.124, 130.775 362.365, 136 358.561 C 141.225 354.756, 147.750 349.990, 150.500 347.968 C 153.250 345.947, 160.900 339.754, 167.500 334.206 C 174.100 328.659, 184.675 319.778, 191 314.472 C 207.475 300.651, 226.540 283.128, 256.465 254.304 C 290.190 221.820, 299.427 211.765, 305.903 200.485 C 311.320 191.052, 315.346 180.066, 314.345 177.456 C 314.019 176.608, 311.981 175.011, 309.816 173.906 C 305.216 171.559, 296.410 165.862, 293.410 163.291 C 292.260 162.306, 288.290 157.569, 284.588 152.765 C 280.886 147.961, 277.540 143.834, 277.153 143.595 C 276.766 143.355, 272.860 145.049, 268.474 147.360 M 356.832 161.626 C 350.551 164.493, 350.742 164.127, 348.428 177.752 C 347.658 182.291, 346.352 189.829, 345.527 194.504 C 341.828 215.467, 340.948 220.563, 338.089 237.618 C 336.418 247.583, 334.618 256.874, 334.089 258.265 C 333.560 259.656, 333.303 260.970, 333.517 261.184 C 333.732 261.399, 333.248 265.157, 332.442 269.537 C 331.636 273.917, 330.771 279.300, 330.520 281.500 C 330.269 283.700, 329.292 289.365, 328.350 294.090 L 326.636 302.679 331.140 308.590 C 333.616 311.840, 337.123 316.679, 338.933 319.342 C 340.742 322.005, 343.595 325.747, 345.272 327.657 L 348.321 331.130 351.138 326.604 C 353.520 322.777, 355.288 321.442, 362.591 317.957 C 381.375 308.991, 391.143 306.170, 412.750 303.469 C 415.637 303.108, 417.997 302.517, 417.994 302.156 C 417.991 301.795, 413.828 299.976, 408.744 298.113 C 393.814 292.642, 386.125 286.883, 378.951 275.797 C 374.557 269.006, 372.584 262.225, 373.953 258.623 C 375.445 254.699, 378.633 253.546, 387.500 253.726 C 394.029 253.858, 400.081 255.167, 420.411 260.842 C 445.072 267.727, 445.369 267.783, 450.086 266.382 C 458.169 263.981, 462.557 256.912, 459.561 251.117 C 456.439 245.081, 451.437 243.665, 427.500 242.043 C 419.250 241.483, 410.973 240.583, 409.108 240.042 C 407.242 239.501, 405.366 239.274, 404.938 239.538 C 403.665 240.325, 388.585 235.195, 384.931 232.732 C 380.144 229.506, 377.375 224.929, 375.658 217.401 C 374.256 211.255, 374.289 210.532, 376.235 204.770 C 377.782 200.190, 379.625 197.332, 383.584 193.372 C 391.682 185.274, 397.001 177.755, 396.996 174.409 C 396.991 170.530, 393.615 165.176, 390.781 164.551 C 389.526 164.275, 384.180 163.654, 378.900 163.173 C 373.620 162.691, 367.814 161.555, 365.997 160.648 C 364.179 159.742, 362.649 159.009, 362.596 159.019 C 362.543 159.030, 359.949 160.203, 356.832 161.626 M 257.946 260.367 C 247.801 269.919, 238.235 279.085, 236.689 280.736 L 233.878 283.737 255.189 310.438 C 266.910 325.124, 280.325 342.082, 285 348.124 C 309.071 379.229, 351.720 431.948, 353.266 432.506 C 358.985 434.574, 378.173 421.390, 390.868 406.669 L 395.034 401.839 390.460 396.169 C 387.945 393.051, 377.513 379.382, 367.279 365.793 C 357.044 352.204, 348.295 341.318, 347.835 341.602 C 347.376 341.886, 347 342.990, 347 344.056 C 347 346.856, 340.389 353.756, 336.991 354.502 C 330.718 355.880, 328.266 353.452, 307.698 325.500 C 300.979 316.368, 280.337 286.498, 278.933 283.875 C 278.045 282.216, 278.331 281.098, 280.471 277.865 C 283.028 274, 291.072 268, 293.696 268 C 294.413 268, 294.992 267.663, 294.981 267.250 C 294.951 266.062, 277.995 243, 277.151 243 C 276.734 243, 268.092 250.815, 257.946 260.367 M 292.804 273.043 C 290.771 274.115, 287.927 276.540, 286.484 278.432 C 283.238 282.688, 282.642 281.447, 298.395 303.271 C 305.053 312.494, 314.871 326.408, 320.214 334.189 C 325.557 341.971, 330.507 348.705, 331.214 349.154 C 335.068 351.599, 340.897 347.491, 343.916 340.202 C 345.506 336.365, 345.820 336.920, 331.671 318.539 C 326.184 311.411, 320.525 303.696, 319.097 301.395 C 315.367 295.386, 298.009 271.538, 297.190 271.297 C 296.810 271.185, 294.837 271.971, 292.804 273.043 M 148.500 357.132 C 141.350 362.521, 130.260 370.656, 123.855 375.209 L 112.211 383.487 114.092 386.130 C 116.835 389.981, 123.359 392.367, 127.452 391.016 C 132.878 389.225, 135.935 385.051, 138.148 376.411 C 139.252 372.104, 140.566 367.810, 141.069 366.870 C 142.232 364.698, 152.266 363.548, 159.984 364.703 L 165.467 365.523 168.657 376.352 C 170.411 382.307, 172.064 387.398, 172.330 387.664 C 172.597 387.930, 174.177 387.442, 175.844 386.581 C 179.803 384.533, 181.387 385.198, 188.130 391.739 C 194.347 397.769, 194.264 397.766, 201.151 392.282 L 204.803 389.375 183.151 368.353 L 161.500 347.332 148.500 357.132 M 364.205 350.885 C 365.047 352.757, 385.571 380.720, 392.500 389.436 C 400.469 399.460, 400.519 399.501, 405.293 399.807 C 409.582 400.081, 410.435 399.765, 413.388 396.807 C 420.073 390.111, 418.353 379.788, 409.630 374.253 C 404.205 370.810, 363.823 350.037, 364.205 350.885 M 273.905 366.589 C 268.150 372.040, 259.599 379.986, 254.902 384.247 L 246.362 391.995 251.034 396.841 C 257.584 403.637, 258.881 408.161, 260.538 430 C 262.434 454.985, 263.374 457.790, 271.428 462.511 C 274.889 464.539, 276.633 464.972, 279.316 464.469 C 284.411 463.513, 289.744 458.665, 291.055 453.797 C 292.294 449.194, 292.130 448.626, 282.366 423.803 L 276.978 410.107 279.346 404.803 C 282.066 398.713, 290.819 389.892, 298.500 385.502 C 301.250 383.930, 303.682 382.505, 303.903 382.335 C 304.304 382.029, 292.771 366.621, 287.250 360.089 L 284.368 356.678 273.905 366.589 M 83.875 406.439 C 77.166 410.998, 75.624 418.667, 80.120 425.115 C 82.831 429.002, 90.955 432.191, 96.066 431.374 C 102.670 430.317, 109 423.667, 109 417.784 C 109 407.303, 93.142 400.142, 83.875 406.439 M 394.553 409.834 C 393.731 412.424, 384.150 422.322, 377 427.967 C 373.975 430.355, 368.847 433.523, 365.604 435.006 L 359.709 437.703 362.604 438.755 C 364.197 439.334, 373.240 442.528, 382.699 445.852 C 398.885 451.540, 399.935 451.782, 400.516 449.948 C 400.857 448.877, 400.887 447.212, 400.583 446.250 C 400.280 445.288, 399.342 436.640, 398.499 427.033 C 397.023 410.214, 395.936 405.475, 394.553 409.834" stroke="none" fill="#d2cac3" fill-rule="evenodd"/></svg>