<svg xmlns="http://www.w3.org/2000/svg" width="1020" height="853" viewBox="0 0 1020 853" version="1.1"><path d="M 109 111.991 C 52.625 112.271, 5.931 112.868, 5.236 113.318 C 4.540 113.768, 3.035 115.971, 1.891 118.214 L -0.190 122.293 0.357 379.397 C 0.658 520.803, 1.321 644.150, 1.830 653.500 C 2.880 672.785, 5.121 683.270, 10.589 694.483 C 20.053 713.893, 38.260 728.050, 63.500 735.625 L 72.500 738.326 140 739.188 C 212.606 740.115, 450.636 739.425, 561.500 737.967 C 635.876 736.989, 633.229 737.211, 648.790 730.648 C 659.718 726.039, 670.159 719.025, 679.357 710.113 C 689.346 700.434, 694.757 692.859, 700.965 679.862 C 709.423 662.156, 713.455 643.691, 715.019 615.500 C 715.569 605.600, 716.484 595.195, 717.052 592.378 C 720.236 576.606, 735.857 567.379, 754.948 569.993 C 769.554 571.993, 816.059 567.074, 840.147 560.983 C 887.459 549.018, 924.961 528.278, 956.568 496.598 C 976.248 476.874, 986.904 461.884, 998.579 437.500 C 1009.604 414.476, 1015.940 390.322, 1018.253 362.500 C 1019.355 349.238, 1019.559 360.828, 1020.006 462.500 C 1020.348 540.140, 1020.513 503.104, 1020.513 348.500 C 1020.513 199.818, 1020.335 158.256, 1020.007 230 C 1019.699 297.010, 1019.185 336.564, 1018.701 330.500 C 1015.867 295.033, 1007.490 262.765, 993.887 234.911 C 975.942 198.166, 954.927 174.627, 919 151.030 C 896.317 136.131, 872.109 125.563, 845.864 119.104 C 819.051 112.504, 824.625 112.758, 689 111.963 C 554.144 111.173, 270.866 111.186, 109 111.991 M 0.491 349.500 C 0.491 475.450, 0.608 526.826, 0.750 463.670 C 0.892 400.513, 0.892 297.463, 0.750 234.670 C 0.608 171.876, 0.491 223.550, 0.491 349.500 M 760.958 239.871 C 735.260 240.495, 734.263 240.594, 729.577 243.008 C 725.915 244.894, 724.020 246.771, 721.787 250.724 L 718.837 255.947 718.333 319.224 C 718.056 354.026, 718.228 392.251, 718.715 404.169 C 719.584 425.438, 719.656 425.946, 722.581 431.667 C 724.766 435.938, 726.624 438.081, 729.535 439.687 C 733.375 441.805, 734.604 441.884, 766.504 442.066 C 808.410 442.305, 818.977 441.334, 831.531 436.088 C 844.325 430.742, 855.257 423.436, 864.147 414.290 C 876.423 401.660, 882.247 390.740, 886.946 371.541 C 890.623 356.520, 891.628 327.547, 889.012 312 C 887.531 303.193, 882.853 289.375, 879.197 283 C 870.277 267.451, 855.528 253.741, 840.281 246.828 C 824.820 239.818, 811.447 238.645, 760.958 239.871 M 455.500 242.095 C 425.364 245.658, 394.373 260.434, 366.879 284.347 L 359.007 291.194 351.753 284.439 C 336.958 270.663, 321.419 260.457, 305.017 253.745 C 246.438 229.772, 178.428 244.901, 149.667 288.304 C 140.994 301.392, 135.790 317.331, 133.605 337.500 C 131.358 358.229, 134.399 382.216, 142.154 404.945 C 147.338 420.139, 155.395 436.546, 162.647 446.676 C 175.309 464.364, 213.026 502.815, 269.500 555.611 C 322.415 605.079, 348.222 628.134, 352.984 630.192 C 360.662 633.510, 363.284 632.121, 382.157 614.743 C 452.223 550.225, 532.105 470.547, 553.180 444.156 C 568.774 424.629, 581.491 394.509, 583.435 372.500 C 583.726 369.200, 584.243 363.575, 584.583 360 C 585.361 351.818, 583.567 333.537, 581.001 323.504 C 570.387 282.005, 537.314 251.890, 493.281 243.629 C 482.756 241.655, 465.241 240.944, 455.500 242.095" stroke="none" fill="#d3cbc3" fill-rule="evenodd"/></svg>