<svg xmlns="http://www.w3.org/2000/svg" width="260" height="260" viewBox="0 0 260 260" version="1.1"><path d="M 135.646 2.269 C 133.540 3.809, 133.476 5.136, 134.975 16 C 136.335 25.853, 136.635 40.444, 135.549 43.855 C 134.908 45.865, 134.346 46.119, 131.699 45.590 C 129.132 45.076, 128.232 45.430, 126.463 47.649 C 124.377 50.265, 124.289 50.283, 122.675 48.414 C 121.767 47.361, 118.428 43.575, 115.255 40 C 112.082 36.425, 108.631 31.475, 107.587 29 C 106.542 26.525, 104.633 22.165, 103.344 19.312 C 102.055 16.458, 101 12.521, 101 10.562 C 101 6.111, 97.660 2.207, 95.433 4.056 C 93.322 5.807, 93.673 8.244, 96.666 12.610 C 98.132 14.750, 100.353 19.687, 101.600 23.582 C 102.848 27.477, 104.793 32.230, 105.923 34.145 C 107.070 36.089, 108.093 39.808, 108.239 42.564 C 108.465 46.848, 108.235 47.538, 106.493 47.788 C 102.951 48.295, 100.985 45.767, 99.536 38.841 C 97.244 27.886, 92.697 21, 87.756 21 C 86.767 21, 85.434 22.147, 84.796 23.549 C 83.325 26.777, 84.908 31.626, 89.514 38 C 91.302 40.475, 94.006 45.617, 95.522 49.428 L 98.279 56.355 96 58.201 C 94.594 59.340, 92.961 59.805, 91.736 59.416 C 89.167 58.601, 87.914 60.644, 89.088 63.732 C 90.911 68.525, 90.302 70, 86.500 70 C 82.648 70, 79 67.175, 79 64.191 C 79 60.962, 76.412 58.568, 72.883 58.533 C 69.956 58.504, 69.101 57.811, 65.752 52.752 C 62.741 48.203, 59.864 45.621, 51.963 40.378 C 39.762 32.281, 35.064 31.208, 30.739 35.533 C 26.764 39.508, 27.080 43.256, 31.750 47.548 C 33.812 49.443, 37.629 51.703, 40.231 52.571 C 43.197 53.560, 47.401 56.358, 51.501 60.074 C 55.097 63.333, 58.446 66, 58.943 66 C 59.440 66, 61.231 67.385, 62.923 69.077 C 65.183 71.337, 66 73.080, 66 75.643 C 66 81.937, 64.758 83, 57.399 83 C 46.935 83, 44.650 85.419, 49.579 91.277 C 51.606 93.685, 52.031 95.022, 51.563 97.515 C 51.128 99.836, 51.510 101.378, 52.984 103.252 C 55.638 106.627, 55.528 108.004, 52.403 110.496 L 49.806 112.566 51.966 116.711 C 53.947 120.510, 54.003 121.093, 52.648 123.713 C 50.536 127.797, 47.037 129.381, 41.831 128.609 C 38.506 128.116, 36.630 128.435, 33.754 129.983 C 29.303 132.379, 24.275 132.560, 19.346 130.500 C 14.421 128.442, 10.380 128.620, 8 131 C 5.661 133.339, 5.496 134.928, 7.331 137.438 C 8.419 138.927, 9.376 139.119, 12.581 138.493 C 23.848 136.293, 43.638 139.142, 49.118 143.753 C 52.741 146.802, 52.725 147.574, 49 149.500 C 47.350 150.353, 46 151.715, 46 152.526 C 46 154.183, 45.789 154.216, 33.958 154.381 C 24.044 154.519, 20.696 156.091, 18.349 161.707 C 15.698 168.052, 19.612 173, 27.284 173 C 29.436 173, 32.622 171.519, 37.080 168.445 C 43.386 164.097, 43.916 163.920, 48.715 164.557 C 55.995 165.522, 56.668 166.136, 54.761 170.074 C 53.196 173.306, 53.369 176, 55.142 176 C 55.653 176, 57.180 175.273, 58.535 174.385 C 60.852 172.867, 60.998 172.882, 60.968 174.635 C 60.951 175.661, 60.290 177.354, 59.500 178.397 C 57.700 180.776, 58.406 182, 61.579 182 L 64.041 182 62.093 185.817 C 59.711 190.486, 58.470 191.545, 50.099 196.055 C 46.470 198.010, 43.087 200.526, 42.581 201.646 C 42.076 202.766, 39.732 204.707, 37.372 205.958 C 34.370 207.551, 31.819 210.174, 28.874 214.694 C 26.559 218.247, 23.139 222.318, 21.273 223.741 C 17.118 226.910, 15 230.811, 15 235.295 C 15 239.655, 17.586 242, 22.394 242 C 28.088 242, 29.779 240.573, 31.607 234.226 C 35.391 221.086, 39.963 215.500, 51.965 209.353 C 56.071 207.250, 62.203 202.935, 65.593 199.765 C 68.982 196.594, 72.260 194, 72.877 194 C 73.495 194, 74 195.095, 74 196.433 C 74 200.696, 80.820 201.073, 83.036 196.932 C 84.577 194.053, 87.716 194.550, 89.474 197.950 C 91.294 201.469, 91.390 204.566, 89.866 210.616 C 88.348 216.645, 89.844 220.271, 93.660 219.816 C 95.872 219.551, 96.533 218.708, 97.713 214.644 C 98.764 211.023, 98.856 209.024, 98.073 206.780 C 97.010 203.731, 97.361 202, 99.041 202 C 101.062 202, 108.958 208.689, 110.432 211.651 C 112.569 215.945, 112.367 223.594, 109.978 228.859 C 108.802 231.450, 108 235.374, 108 238.533 C 108 241.456, 107.486 246.073, 106.859 248.792 C 105.498 254.685, 106.276 258.635, 108.965 259.489 C 114.088 261.115, 116.975 255.795, 117.044 244.601 C 117.068 240.695, 117.770 235.700, 118.604 233.500 C 119.438 231.300, 120.494 226.438, 120.950 222.695 C 122.061 213.588, 126.264 206.500, 130.555 206.499 C 132.175 206.499, 134.946 205.888, 136.714 205.143 C 139.666 203.898, 140.182 203.979, 143.071 206.144 C 144.800 207.440, 147.806 209.982, 149.751 211.794 L 153.288 215.088 152.751 223.294 C 152.043 234.114, 152.709 236.414, 156.664 236.804 C 160.511 237.183, 163.425 234.595, 162.520 231.601 C 162.171 230.445, 161.548 227.025, 161.136 224 C 160.724 220.975, 159.805 217.433, 159.093 216.128 C 156.696 211.734, 160.078 203, 164.177 203 C 165.348 203, 168.691 204.128, 171.606 205.507 C 176.346 207.749, 177.225 208.686, 179.952 214.400 C 181.628 217.912, 183 221.029, 183 221.327 C 183 221.624, 184.300 224.035, 185.890 226.684 C 187.776 229.827, 189.180 234.087, 189.932 238.951 C 191.771 250.834, 197.150 256.889, 201.984 252.515 C 206.527 248.403, 205.454 242.789, 198.406 233.793 C 192.510 226.267, 188.332 217.070, 187.020 208.727 C 185.460 198.812, 186.820 196.857, 193.404 199.553 C 195.180 200.280, 195.273 199.934, 194.795 194.416 C 194.231 187.910, 194.577 186, 196.322 186 C 198.332 186, 205.737 195.022, 207.486 199.602 C 209.147 203.951, 212.403 206.105, 214.943 204.535 C 216.585 203.520, 216.190 199.520, 214.188 196.885 C 211.105 192.827, 207 185.223, 207 183.572 C 207 181.013, 209.003 181.748, 213.616 186 C 218.664 190.653, 222 191.275, 222 187.564 C 222 185.764, 220.958 184.542, 218.011 182.886 C 214.064 180.668, 212.287 177.962, 213.494 176.009 C 214.378 174.579, 218.062 174.820, 221 176.500 C 222.375 177.286, 225.412 177.945, 227.750 177.965 C 231.503 177.996, 231.999 177.737, 231.995 175.750 C 231.993 174.512, 230.620 172.037, 228.945 170.250 C 226.501 167.643, 225.115 167, 221.937 167 L 217.976 167 218.582 162.750 C 219.003 159.796, 220.074 157.715, 222.094 155.927 C 225.532 152.883, 226.094 149.518, 223 150.500 C 220.916 151.162, 220.207 149.608, 222.068 148.458 C 222.656 148.095, 222.895 147.168, 222.600 146.399 C 222.304 145.629, 222.499 145, 223.031 145 C 224.817 145, 224.024 143.239, 222 142.710 C 218.465 141.786, 219.850 139.236, 225.874 135.576 C 229.105 133.614, 232.305 131.337, 232.986 130.517 C 234.831 128.293, 233.454 124.724, 230.001 122.781 C 227.528 121.389, 227.061 120.605, 227.548 118.663 C 228.009 116.826, 227.512 115.762, 225.429 114.123 C 222.877 112.116, 222.810 111.867, 224.353 110.162 C 226.966 107.275, 226.457 104.146, 223.250 103.388 C 221.738 103.030, 219.496 101.826, 218.268 100.711 L 216.036 98.685 220.085 94.292 C 222.311 91.877, 223.955 89.360, 223.738 88.700 C 223.111 86.798, 218.829 85.031, 214.809 85.015 C 212.779 85.007, 210.847 84.562, 210.517 84.027 C 210.186 83.492, 208.135 82.575, 205.958 81.989 C 202.244 80.989, 202.001 80.694, 202.018 77.211 C 202.030 74.765, 203.053 72, 205.018 69.100 C 206.658 66.679, 208 64.324, 208 63.865 C 208 63.406, 209.402 60.751, 211.117 57.965 C 212.831 55.179, 213.944 52.610, 213.590 52.256 C 213.236 51.903, 209.862 54.893, 206.092 58.903 C 197.682 67.845, 195.934 67.948, 192.994 59.672 L 191.990 56.843 188.535 58.978 C 184.484 61.482, 182.138 60.735, 179.379 56.064 C 178.430 54.457, 176.831 52.928, 175.826 52.665 C 174.822 52.402, 174 51.523, 174 50.710 C 174 49.898, 173.100 48.998, 172 48.710 C 169.156 47.967, 169.509 44.893, 172.932 40.586 C 176.180 36.499, 177.501 32.153, 176.477 28.927 C 175.910 27.142, 175.229 26.887, 172.152 27.307 C 165.834 28.170, 157.809 31.676, 154.812 34.883 C 152.361 37.506, 151.643 37.794, 150.044 36.796 C 148.601 35.895, 147.830 35.896, 146.739 36.801 C 145.012 38.235, 144 37.397, 144 34.533 C 144 33.360, 143.496 31.896, 142.880 31.280 C 140.820 29.220, 140.169 21.706, 141.285 12.863 C 142.166 5.890, 142.123 3.853, 141.069 2.583 C 139.480 0.669, 137.956 0.581, 135.646 2.269 M 156.607 17.582 C 155.496 20.478, 155.950 24, 157.435 24 C 160.995 24, 164 22, 164 19.632 C 164 16.057, 157.847 14.350, 156.607 17.582 M 216.630 43.250 C 216.299 44.487, 216.021 46.299, 216.014 47.276 C 216.001 48.918, 216.220 48.938, 218.937 47.533 C 222.485 45.698, 223.198 44.680, 222.396 42.590 C 221.449 40.122, 217.343 40.592, 216.630 43.250 M 141.127 46.623 C 139.359 47.862, 138.896 48.987, 139.174 51.373 C 139.535 54.469, 139.493 54.501, 134.914 54.570 C 128.824 54.662, 122.890 58.191, 115.619 66.045 C 107.485 74.830, 103.677 82.748, 103.578 91.077 C 103.511 96.720, 103.927 98.344, 106.500 102.500 C 114.424 115.296, 130.541 114.677, 139.057 101.249 C 145.156 91.632, 148.903 77.420, 147.606 68.826 C 147.218 66.256, 145.587 62.206, 143.981 59.826 C 141.172 55.663, 141.132 55.444, 142.914 54 C 146.864 50.801, 148.049 45, 144.754 45 C 144.034 45, 142.402 45.730, 141.127 46.623 M 168.035 53.934 C 165.879 57.964, 167.371 63, 170.721 63 C 171.448 63, 172.527 61.937, 173.119 60.639 C 173.952 58.811, 173.828 57.568, 172.572 55.139 C 170.702 51.523, 169.497 51.203, 168.035 53.934 M 160.946 66.821 C 152.539 72.154, 147.032 84.247, 146.231 99.132 C 145.535 112.073, 148.360 118.443, 156.421 122.104 C 164.144 125.611, 171.425 123.939, 178.019 117.143 C 183.620 111.371, 185.291 106.219, 185.200 95 C 185.105 83.174, 182.248 74.337, 176.620 68.464 C 171.354 62.968, 167.633 62.578, 160.946 66.821 M 37.507 77.636 C 36.393 78.750, 36.197 79.597, 36.893 80.293 C 38.122 81.522, 41 79.479, 41 77.378 C 41 75.528, 39.504 75.639, 37.507 77.636 M 224.200 78.200 C 222.246 80.154, 222.826 82, 225.393 82 C 228.098 82, 229.412 79.812, 227.722 78.122 C 226.298 76.698, 225.688 76.712, 224.200 78.200 M 234.250 78.662 C 232.243 79.472, 232.812 82, 235 82 C 236.333 82, 237 81.333, 237 80 C 237 77.979, 236.521 77.746, 234.250 78.662 M 22.516 82.250 C 21.490 85.297, 21.637 88.880, 22.869 90.823 C 23.457 91.749, 24.800 91.940, 27.354 91.461 C 30.358 90.898, 31 90.350, 31 88.354 C 31 84.709, 28.152 81, 25.354 81 C 24.025 81, 22.748 81.563, 22.516 82.250 M 89.614 82.874 C 87.243 85.494, 87.847 89.407, 90.687 89.811 C 93.210 90.170, 96.369 86.165, 95.823 83.299 C 95.342 80.778, 91.735 80.531, 89.614 82.874 M 86.662 96.549 C 79.977 99, 72.354 105.589, 69.149 111.684 C 67.280 115.238, 67.744 124.578, 70.010 129.019 C 72.510 133.920, 76.282 135.928, 84.278 136.616 C 92.673 137.338, 98.474 134.489, 101.822 128 C 103.775 124.216, 104.078 122.387, 103.724 116.500 C 103.239 108.420, 99.974 99.911, 96.226 96.963 C 93.330 94.685, 91.910 94.624, 86.662 96.549 M 243 111 C 239.975 112.064, 236.064 112.949, 234.309 112.967 C 232.554 112.985, 230.874 113.395, 230.575 113.878 C 229.155 116.177, 249.290 116.855, 252.250 114.608 C 254.679 112.764, 254.437 110.350, 251.750 109.630 C 248.832 108.848, 249.344 108.768, 243 111 M 191.436 112.398 C 190.393 116.553, 191.303 119.472, 193.748 119.819 C 196.622 120.227, 198.409 116.206, 197 112.500 C 195.747 109.205, 192.254 109.142, 191.436 112.398 M 124.844 121.394 C 118.787 123.557, 112.364 127.758, 108.834 131.864 C 106.195 134.934, 104.396 135.977, 100.200 136.871 C 85.546 139.993, 77.981 148.778, 77.267 163.500 C 76.756 174.031, 78.417 177.424, 86 181.341 C 91.484 184.174, 91.540 184.181, 105.235 183.548 C 113.909 183.147, 119.672 183.289, 120.877 183.934 C 121.925 184.495, 125.194 187.027, 128.142 189.561 C 134.725 195.220, 139.548 197.776, 145.925 198.986 C 155.137 200.733, 161.063 197.070, 166.125 186.500 C 171.637 174.991, 169.141 162.709, 159.572 154.261 C 155.850 150.974, 155.221 149.809, 154.591 145.017 C 153.705 138.287, 148.795 128.801, 144.264 125.066 C 138.465 120.286, 131.587 118.985, 124.844 121.394 M 179.259 124.101 C 169.188 129.086, 160.692 142.952, 162.929 150.752 C 165.220 158.741, 174.062 165, 183.056 165 C 187.076 165, 188.348 164.446, 192.289 160.976 C 197.824 156.105, 199.420 151.816, 198.759 143.586 C 198.178 136.351, 194.519 128.456, 189.972 124.630 C 186.196 121.453, 184.753 121.381, 179.259 124.101 M 42.742 181.657 C 38.773 184.481, 37.650 188.545, 40.533 189.651 C 42.489 190.402, 49.261 183.587, 48.819 181.311 C 48.314 178.707, 46.764 178.795, 42.742 181.657 M 235.750 181.763 C 233.502 182.256, 233.524 184.191, 235.812 187.016 C 238.133 189.882, 242 188.993, 242 185.593 C 242 183.126, 238.715 181.113, 235.750 181.763 M 6.180 209.240 C 6.517 211.596, 9.562 212.838, 11.139 211.261 C 12.710 209.690, 10.932 207, 8.323 207 C 6.345 207, 5.924 207.440, 6.180 209.240 M 132.441 227.115 C 130.531 230.807, 131.808 233.049, 134.364 230.493 C 136.134 228.723, 136.615 224, 135.026 224 C 134.490 224, 133.327 225.402, 132.441 227.115 M 210.635 226.683 C 211.006 228.159, 211.912 230.522, 212.648 231.933 C 213.385 233.345, 213.990 235.007, 213.994 235.628 C 213.997 236.248, 214.683 237.322, 215.519 238.016 C 216.762 239.047, 217.397 238.950, 219.019 237.483 C 222.914 233.958, 220.830 228.480, 214.316 225.125 C 210.824 223.327, 209.892 223.721, 210.635 226.683" stroke="none" fill="#d6c9c7" fill-rule="evenodd"/></svg>